<svg xmlns="http://www.w3.org/2000/svg" xmlns:xlink="http://www.w3.org/1999/xlink" width="600" height="600" viewBox="0 0 600 600"><defs><clipPath id="a"><circle cx="300" cy="300" r="300" fill="#fff" stroke="#707070" stroke-width="1"/></clipPath><clipPath id="c"><rect width="600" height="600"/></clipPath></defs><g id="b" clip-path="url(#c)"><rect width="600" height="600" fill="#fff"/><g clip-path="url(#a)"><path d="M0,0H600V200H200Z"/><path d="M0,0H400V200H200Z" transform="translate(200 200)" fill="red"/><path d="M0,0H200V200Z" transform="translate(400 400)" fill="#fc0"/><path d="M0,0,200,200V600H0Z" fill="#0055a4"/><path d="M0,0,200,200V400H0Z" transform="translate(200 200)" fill="#fff"/><path d="M0,0,200,200H0Z" transform="translate(400 400)" fill="#ef4531"/><g transform="translate(-25 -33.695)"><path d="M355.882,707.424,573.664,708.7l.194-144.423S705.517,571.154,706,444.979,564.823,331.651,564.823,331.651s7.409-102.227-99.535-102.952S361.529,331.651,361.529,331.651,226.041,304.021,226,444.979,355.882,564.272,355.882,564.272Z" transform="translate(-141 -135)" fill="#fff" stroke="#000" stroke-width="10"/><path d="M346,445s17.88,73.029,101.117,73.029S548.235,445,548.235,445" transform="translate(-124.952 -93.995)" fill="#fff" stroke="#000" stroke-linecap="round" stroke-width="10"/><path d="M535.941,512.339C505.207,512.613,491,491.065,491,491.065" transform="translate(-106.545 -83.481)" fill="#fff" stroke="#000" stroke-linecap="round" stroke-width="10"/><path d="M341,512.471C365.78,511.534,380.323,490,380.323,490" transform="translate(-126.057 -83.638)" fill="#fff" stroke="#000" stroke-linecap="round" stroke-width="10"/><line x2="213.47" transform="translate(215.429 533.175)" fill="none" stroke="#000" stroke-width="10"/></g></g></g></svg>